<svg width="488" height="48" viewBox="0 0 488 48" fill="none" xmlns="http://www.w3.org/2000/svg">
<path d="M25.9946 31.0305C25.7072 30.8381 25.4519 30.6024 25.2386 30.3302C25.0058 30.0482 24.7901 29.7516 24.5919 29.4446C24.1264 28.7625 23.7624 28.0165 23.5102 27.2302C23.2063 26.3155 23.0586 25.4397 23.0586 24.5828C23.0586 23.6267 23.2652 22.7923 23.6676 22.0919C23.9654 21.5438 24.409 21.0852 24.9438 20.7631C25.4604 20.4403 26.0621 20.2637 26.6698 20.2515C26.8826 20.2515 27.1135 20.2819 27.3566 20.3428C27.5328 20.3916 27.7456 20.4707 28.0069 20.5682C28.3412 20.6961 28.5235 20.7752 28.5843 20.7935C28.7787 20.8666 28.9428 20.897 29.0704 20.897C29.1677 20.897 29.3075 20.8666 29.4624 20.8179C29.5506 20.7874 29.7177 20.7326 29.9547 20.6291C30.1893 20.5438 30.3753 20.4707 30.523 20.4159C30.7478 20.3489 30.9654 20.288 31.1611 20.2576C31.3981 20.221 31.6333 20.2089 31.8588 20.2271C32.2903 20.2576 32.6853 20.3489 33.0378 20.4829C33.6577 20.7326 34.1579 21.1224 34.5311 21.6766C34.3731 21.774 34.2272 21.8873 34.0905 22.0116C33.7945 22.2734 33.5435 22.584 33.3429 22.9281C33.0816 23.3971 32.9479 23.9269 32.9515 24.4629C32.9607 25.1224 33.1278 25.7022 33.462 26.2047C33.6972 26.5701 34.0115 26.8831 34.3943 27.1401C34.5827 27.268 34.748 27.3563 34.9048 27.4142C34.8319 27.6425 34.7517 27.8648 34.6587 28.0841C34.4478 28.5756 34.1968 29.0463 33.899 29.4909C33.6365 29.8746 33.4298 30.1608 33.273 30.3496C33.0287 30.642 32.7929 30.8612 32.5559 31.0177C32.2946 31.1913 31.9876 31.2833 31.6734 31.2833C31.4607 31.2924 31.248 31.265 31.045 31.2059C30.8688 31.1481 30.695 31.0829 30.5248 31.0092C30.3467 30.9276 30.1626 30.8582 29.9748 30.8021C29.7438 30.7412 29.5068 30.712 29.2674 30.7126C29.0243 30.7126 28.7872 30.7431 28.5624 30.8009C28.374 30.8545 28.1916 30.9203 28.0111 30.9989C27.7559 31.1054 27.5888 31.1755 27.4915 31.2059C27.2946 31.2644 27.0928 31.2997 26.8898 31.3125C26.5738 31.3125 26.2797 31.2211 25.9867 31.0384L25.9946 31.0305ZM30.1601 19.788C29.7469 19.9951 29.3543 20.0828 28.9611 20.0536C28.9003 19.6601 28.9611 19.2557 29.1251 18.813C29.271 18.4354 29.4655 18.0943 29.7329 17.7898C30.0125 17.4731 30.3467 17.2113 30.7235 17.0225C31.1246 16.8154 31.5075 16.7058 31.8722 16.6875C31.9208 17.1016 31.8722 17.5097 31.7202 17.9482C31.5817 18.3379 31.375 18.6973 31.1125 19.02C30.8481 19.3367 30.5199 19.5986 30.1486 19.7874L30.1601 19.788Z" fill="#27273F"/>
<path d="M168.008 29.662C166.76 29.662 165.692 29.398 164.804 28.87C163.916 28.342 163.232 27.592 162.752 26.62C162.284 25.648 162.05 24.49 162.05 23.146C162.05 21.814 162.284 20.662 162.752 19.69C163.232 18.718 163.916 17.968 164.804 17.44C165.692 16.912 166.76 16.648 168.008 16.648C168.884 16.648 169.688 16.786 170.42 17.062C171.164 17.338 171.794 17.74 172.31 18.268L171.734 19.474C171.182 18.958 170.606 18.586 170.006 18.358C169.418 18.118 168.764 17.998 168.044 17.998C166.616 17.998 165.524 18.448 164.768 19.348C164.012 20.248 163.634 21.514 163.634 23.146C163.634 24.79 164.012 26.062 164.768 26.962C165.524 27.862 166.616 28.312 168.044 28.312C168.764 28.312 169.418 28.198 170.006 27.97C170.606 27.73 171.182 27.352 171.734 26.836L172.31 28.042C171.794 28.558 171.164 28.96 170.42 29.248C169.688 29.524 168.884 29.662 168.008 29.662ZM177.435 29.662C176.583 29.662 175.845 29.476 175.221 29.104C174.597 28.732 174.111 28.21 173.763 27.538C173.427 26.854 173.259 26.05 173.259 25.126C173.259 24.202 173.427 23.404 173.763 22.732C174.111 22.048 174.597 21.52 175.221 21.148C175.845 20.776 176.583 20.59 177.435 20.59C178.275 20.59 179.007 20.776 179.631 21.148C180.267 21.52 180.753 22.048 181.089 22.732C181.437 23.404 181.611 24.202 181.611 25.126C181.611 26.05 181.437 26.854 181.089 27.538C180.753 28.21 180.267 28.732 179.631 29.104C179.007 29.476 178.275 29.662 177.435 29.662ZM177.435 28.492C178.251 28.492 178.905 28.204 179.397 27.628C179.889 27.04 180.135 26.206 180.135 25.126C180.135 24.034 179.889 23.2 179.397 22.624C178.905 22.048 178.251 21.76 177.435 21.76C176.607 21.76 175.947 22.048 175.455 22.624C174.975 23.2 174.735 24.034 174.735 25.126C174.735 26.206 174.975 27.04 175.455 27.628C175.947 28.204 176.607 28.492 177.435 28.492ZM183.801 29.5V20.752H185.223V22.246C185.511 21.694 185.919 21.28 186.447 21.004C186.975 20.728 187.569 20.59 188.229 20.59C190.305 20.59 191.343 21.742 191.343 24.046V29.5H189.885V24.136C189.885 23.32 189.723 22.726 189.399 22.354C189.087 21.97 188.583 21.778 187.887 21.778C187.083 21.778 186.441 22.03 185.961 22.534C185.493 23.026 185.259 23.686 185.259 24.514V29.5H183.801ZM197.541 29.662C196.509 29.662 195.735 29.392 195.219 28.852C194.703 28.3 194.445 27.508 194.445 26.476V21.886H192.735V20.752H194.445V18.07H195.903V20.752H198.675V21.886H195.903V26.332C195.903 27.016 196.047 27.538 196.335 27.898C196.623 28.246 197.091 28.42 197.739 28.42C197.931 28.42 198.123 28.396 198.315 28.348C198.507 28.3 198.681 28.252 198.837 28.204L199.089 29.32C198.933 29.404 198.705 29.482 198.405 29.554C198.105 29.626 197.817 29.662 197.541 29.662ZM200.144 18.574V16.936H201.944V18.574H200.144ZM200.324 29.5V20.752H201.782V29.5H200.324ZM204.508 29.5V20.752H205.93V22.246C206.218 21.694 206.626 21.28 207.154 21.004C207.682 20.728 208.276 20.59 208.936 20.59C211.012 20.59 212.05 21.742 212.05 24.046V29.5H210.592V24.136C210.592 23.32 210.43 22.726 210.106 22.354C209.794 21.97 209.29 21.778 208.594 21.778C207.79 21.778 207.148 22.03 206.668 22.534C206.2 23.026 205.966 23.686 205.966 24.514V29.5H204.508ZM217.834 29.662C215.734 29.662 214.684 28.504 214.684 26.188V20.752H216.142V26.17C216.142 26.95 216.298 27.526 216.61 27.898C216.934 28.27 217.438 28.456 218.122 28.456C218.866 28.456 219.472 28.21 219.94 27.718C220.408 27.214 220.642 26.548 220.642 25.72V20.752H222.1V29.5H220.678V28.024C220.402 28.552 220.012 28.96 219.508 29.248C219.016 29.524 218.458 29.662 217.834 29.662ZM228.77 29.662C227.39 29.662 226.298 29.26 225.494 28.456C224.69 27.64 224.288 26.536 224.288 25.144C224.288 24.244 224.468 23.452 224.828 22.768C225.188 22.072 225.68 21.538 226.304 21.166C226.94 20.782 227.672 20.59 228.5 20.59C229.688 20.59 230.618 20.974 231.29 21.742C231.962 22.498 232.298 23.542 232.298 24.874V25.432H225.71C225.758 26.428 226.046 27.19 226.574 27.718C227.102 28.234 227.834 28.492 228.77 28.492C229.298 28.492 229.802 28.414 230.282 28.258C230.762 28.09 231.218 27.82 231.65 27.448L232.154 28.474C231.758 28.846 231.254 29.14 230.642 29.356C230.03 29.56 229.406 29.662 228.77 29.662ZM228.536 21.67C227.708 21.67 227.054 21.928 226.574 22.444C226.094 22.96 225.812 23.638 225.728 24.478H231.038C231.002 23.59 230.768 22.9 230.336 22.408C229.916 21.916 229.316 21.67 228.536 21.67ZM241.353 29.5L238.095 20.752H239.625L242.091 27.79L244.647 20.752H245.889L248.409 27.808L250.911 20.752H252.369L249.093 29.5H247.707L245.241 22.714L242.757 29.5H241.353ZM253.986 18.574V16.936H255.786V18.574H253.986ZM254.166 29.5V20.752H255.624V29.5H254.166ZM261.859 29.662C260.827 29.662 260.053 29.392 259.537 28.852C259.021 28.3 258.763 27.508 258.763 26.476V21.886H257.053V20.752H258.763V18.07H260.221V20.752H262.993V21.886H260.221V26.332C260.221 27.016 260.365 27.538 260.653 27.898C260.941 28.246 261.409 28.42 262.057 28.42C262.249 28.42 262.441 28.396 262.633 28.348C262.825 28.3 262.999 28.252 263.155 28.204L263.407 29.32C263.251 29.404 263.023 29.482 262.723 29.554C262.423 29.626 262.135 29.662 261.859 29.662ZM264.642 29.5V16.81H266.1V22.192C266.388 21.664 266.79 21.268 267.306 21.004C267.834 20.728 268.422 20.59 269.07 20.59C271.146 20.59 272.184 21.742 272.184 24.046V29.5H270.726V24.136C270.726 23.32 270.564 22.726 270.24 22.354C269.928 21.97 269.424 21.778 268.728 21.778C267.924 21.778 267.282 22.03 266.802 22.534C266.334 23.026 266.1 23.686 266.1 24.514V29.5H264.642ZM278.47 29.5L284.068 16.81H285.328L290.926 29.5H289.396L287.992 26.26H281.386L280 29.5H278.47ZM284.68 18.538L281.926 25.018H287.47L284.716 18.538H284.68ZM292.609 32.74V20.752H294.031V22.318C294.295 21.778 294.685 21.358 295.201 21.058C295.729 20.746 296.341 20.59 297.037 20.59C297.817 20.59 298.495 20.776 299.071 21.148C299.659 21.508 300.109 22.03 300.421 22.714C300.745 23.386 300.907 24.19 300.907 25.126C300.907 26.05 300.745 26.854 300.421 27.538C300.109 28.21 299.659 28.732 299.071 29.104C298.495 29.476 297.817 29.662 297.037 29.662C296.365 29.662 295.765 29.512 295.237 29.212C294.709 28.912 294.319 28.498 294.067 27.97V32.74H292.609ZM296.731 28.492C297.547 28.492 298.201 28.204 298.693 27.628C299.185 27.04 299.431 26.206 299.431 25.126C299.431 24.034 299.185 23.2 298.693 22.624C298.201 22.048 297.547 21.76 296.731 21.76C295.915 21.76 295.261 22.048 294.769 22.624C294.277 23.2 294.031 24.034 294.031 25.126C294.031 26.206 294.277 27.04 294.769 27.628C295.261 28.204 295.915 28.492 296.731 28.492ZM303.103 32.74V20.752H304.525V22.318C304.789 21.778 305.179 21.358 305.695 21.058C306.223 20.746 306.835 20.59 307.531 20.59C308.311 20.59 308.989 20.776 309.565 21.148C310.153 21.508 310.603 22.03 310.915 22.714C311.239 23.386 311.401 24.19 311.401 25.126C311.401 26.05 311.239 26.854 310.915 27.538C310.603 28.21 310.153 28.732 309.565 29.104C308.989 29.476 308.311 29.662 307.531 29.662C306.859 29.662 306.259 29.512 305.731 29.212C305.203 28.912 304.813 28.498 304.561 27.97V32.74H303.103ZM307.225 28.492C308.041 28.492 308.695 28.204 309.187 27.628C309.679 27.04 309.925 26.206 309.925 25.126C309.925 24.034 309.679 23.2 309.187 22.624C308.695 22.048 308.041 21.76 307.225 21.76C306.409 21.76 305.755 22.048 305.263 22.624C304.771 23.2 304.525 24.034 304.525 25.126C304.525 26.206 304.771 27.04 305.263 27.628C305.755 28.204 306.409 28.492 307.225 28.492ZM316.279 29.662C315.391 29.662 314.719 29.404 314.263 28.888C313.819 28.36 313.597 27.598 313.597 26.602V16.81H315.055V26.494C315.055 27.778 315.565 28.42 316.585 28.42C316.885 28.42 317.155 28.384 317.395 28.312L317.359 29.536C316.987 29.62 316.627 29.662 316.279 29.662ZM322.778 29.662C321.398 29.662 320.306 29.26 319.502 28.456C318.698 27.64 318.296 26.536 318.296 25.144C318.296 24.244 318.476 23.452 318.836 22.768C319.196 22.072 319.688 21.538 320.312 21.166C320.948 20.782 321.68 20.59 322.508 20.59C323.696 20.59 324.626 20.974 325.298 21.742C325.97 22.498 326.306 23.542 326.306 24.874V25.432H319.718C319.766 26.428 320.054 27.19 320.582 27.718C321.11 28.234 321.842 28.492 322.778 28.492C323.306 28.492 323.81 28.414 324.29 28.258C324.77 28.09 325.226 27.82 325.658 27.448L326.162 28.474C325.766 28.846 325.262 29.14 324.65 29.356C324.038 29.56 323.414 29.662 322.778 29.662ZM322.544 21.67C321.716 21.67 321.062 21.928 320.582 22.444C320.102 22.96 319.82 23.638 319.736 24.478H325.046C325.01 23.59 324.776 22.9 324.344 22.408C323.924 21.916 323.324 21.67 322.544 21.67Z" fill="#605DEC"/>
<rect x="0.5" y="0.5" width="487" height="47" rx="3.5" stroke="#605DEC"/>
</svg>
