<svg width="95" height="48" viewBox="0 0 95 48" fill="none" xmlns="http://www.w3.org/2000/svg">
<rect width="95" height="48" rx="4" fill="#605DEC"/>
<path d="M25.04 29.144C24.1547 29.144 23.3547 29.032 22.64 28.808C21.9253 28.5733 21.3067 28.2373 20.784 27.8L21.248 26.744C21.792 27.16 22.3627 27.4693 22.96 27.672C23.5573 27.8747 24.2507 27.976 25.04 27.976C26 27.976 26.7093 27.8 27.168 27.448C27.6373 27.0853 27.872 26.6107 27.872 26.024C27.872 25.5547 27.7013 25.1813 27.36 24.904C27.0293 24.6267 26.4693 24.408 25.68 24.248L24.016 23.912C23.0133 23.6987 22.2613 23.352 21.76 22.872C21.2693 22.3813 21.024 21.7307 21.024 20.92C21.024 20.248 21.1947 19.6613 21.536 19.16C21.888 18.6587 22.3733 18.2693 22.992 17.992C23.6107 17.7147 24.3253 17.576 25.136 17.576C25.8933 17.576 26.5973 17.6987 27.248 17.944C27.8987 18.1787 28.448 18.52 28.896 18.968L28.432 19.992C27.952 19.5547 27.4453 19.24 26.912 19.048C26.3787 18.8453 25.7813 18.744 25.12 18.744C24.2773 18.744 23.6053 18.9413 23.104 19.336C22.6027 19.72 22.352 20.232 22.352 20.872C22.352 21.384 22.5067 21.7893 22.816 22.088C23.136 22.3867 23.6533 22.6053 24.368 22.744L26.032 23.096C27.1093 23.32 27.904 23.6613 28.416 24.12C28.9387 24.568 29.2 25.1813 29.2 25.96C29.2 26.5893 29.0293 27.144 28.688 27.624C28.3573 28.104 27.8773 28.4773 27.248 28.744C26.6293 29.0107 25.8933 29.144 25.04 29.144ZM30.8997 19.288V17.832H32.4998V19.288H30.8997ZM31.0598 29V21.224H32.3558V29H31.0598ZM38.2185 32.024C37.5465 32.024 36.9118 31.9333 36.3145 31.752C35.7278 31.5813 35.2052 31.32 34.7465 30.968L35.1785 30.024C35.6585 30.3653 36.1332 30.6107 36.6025 30.76C37.0825 30.9093 37.5998 30.984 38.1545 30.984C39.6905 30.984 40.4585 30.1947 40.4585 28.616V27.24C40.2345 27.7307 39.8825 28.12 39.4025 28.408C38.9332 28.6853 38.3945 28.824 37.7865 28.824C37.0718 28.824 36.4532 28.6587 35.9305 28.328C35.4078 27.9973 35.0025 27.544 34.7145 26.968C34.4372 26.3813 34.2985 25.704 34.2985 24.936C34.2985 24.168 34.4372 23.496 34.7145 22.92C35.0025 22.3333 35.4078 21.88 35.9305 21.56C36.4532 21.24 37.0718 21.08 37.7865 21.08C38.3945 21.08 38.9332 21.2187 39.4025 21.496C39.8825 21.7733 40.2345 22.152 40.4585 22.632V21.224H41.7225V28.44C41.7225 29.6347 41.4238 30.5307 40.8265 31.128C40.2398 31.7253 39.3705 32.024 38.2185 32.024ZM38.0265 27.768C38.7732 27.768 39.3652 27.512 39.8025 27C40.2398 26.488 40.4585 25.8 40.4585 24.936C40.4585 24.072 40.2398 23.3893 39.8025 22.888C39.3652 22.376 38.7732 22.12 38.0265 22.12C37.2905 22.12 36.7038 22.376 36.2665 22.888C35.8292 23.3893 35.6105 24.072 35.6105 24.936C35.6105 25.8 35.8292 26.488 36.2665 27C36.7038 27.512 37.2905 27.768 38.0265 27.768ZM44.1535 29V21.224H45.4175V22.552C45.6735 22.0613 46.0362 21.6933 46.5055 21.448C46.9748 21.2027 47.5028 21.08 48.0895 21.08C49.9348 21.08 50.8575 22.104 50.8575 24.152V29H49.5615V24.232C49.5615 23.5067 49.4175 22.9787 49.1295 22.648C48.8522 22.3067 48.4042 22.136 47.7855 22.136C47.0708 22.136 46.5002 22.36 46.0735 22.808C45.6575 23.2453 45.4495 23.832 45.4495 24.568V29H44.1535ZM60.1086 29.144C58.242 29.144 57.3086 28.1147 57.3086 26.056V21.224H58.6046V26.04C58.6046 26.7333 58.7433 27.2453 59.0206 27.576C59.3086 27.9067 59.7566 28.072 60.3646 28.072C61.026 28.072 61.5646 27.8533 61.9806 27.416C62.3966 26.968 62.6046 26.376 62.6046 25.64V21.224H63.9006V29H62.6366V27.688C62.3913 28.1573 62.0446 28.52 61.5966 28.776C61.1593 29.0213 60.6633 29.144 60.1086 29.144ZM66.3254 31.88V21.224H67.5894V22.616C67.824 22.136 68.1707 21.7627 68.6294 21.496C69.0987 21.2187 69.6427 21.08 70.2614 21.08C70.9547 21.08 71.5574 21.2453 72.0694 21.576C72.592 21.896 72.992 22.36 73.2694 22.968C73.5574 23.5653 73.7014 24.28 73.7014 25.112C73.7014 25.9333 73.5574 26.648 73.2694 27.256C72.992 27.8533 72.592 28.3173 72.0694 28.648C71.5574 28.9787 70.9547 29.144 70.2614 29.144C69.664 29.144 69.1307 29.0107 68.6614 28.744C68.192 28.4773 67.8454 28.1093 67.6214 27.64V31.88H66.3254ZM69.9894 28.104C70.7147 28.104 71.296 27.848 71.7334 27.336C72.1707 26.8133 72.3894 26.072 72.3894 25.112C72.3894 24.1413 72.1707 23.4 71.7334 22.888C71.296 22.376 70.7147 22.12 69.9894 22.12C69.264 22.12 68.6827 22.376 68.2454 22.888C67.808 23.4 67.5894 24.1413 67.5894 25.112C67.5894 26.072 67.808 26.8133 68.2454 27.336C68.6827 27.848 69.264 28.104 69.9894 28.104Z" fill="#FAFAFA"/>
</svg>
