<svg width="488" height="48" viewBox="0 0 488 48" fill="none" xmlns="http://www.w3.org/2000/svg">
<path d="M35.0393 17.25H22.9607C22.7763 17.2625 22.6027 17.3413 22.472 17.472C22.3413 17.6027 22.2625 17.7763 22.25 17.9607V30.0393C22.251 30.2274 22.3263 30.4076 22.4593 30.5407C22.5924 30.6737 22.7726 30.749 22.9607 30.75H29.4264V25.4921H27.7207V23.5029H29.4971V22.0107C29.4588 21.6529 29.4999 21.291 29.6175 20.9509C29.7351 20.6107 29.9262 20.3007 30.1773 20.0428C30.4284 19.785 30.7332 19.5857 31.0701 19.4592C31.407 19.3326 31.7677 19.282 32.1264 19.3107C32.8372 19.3107 33.4764 19.3814 33.6893 19.3814V21.2293H32.6236C31.7707 21.2293 31.6285 21.6558 31.6285 22.2244V23.5029H33.6178L33.3335 25.5636H31.5579V30.75H35.0393C35.2274 30.749 35.4076 30.6737 35.5407 30.5407C35.6737 30.4076 35.749 30.2274 35.75 30.0393V17.9607C35.7375 17.7763 35.6587 17.6027 35.528 17.472C35.3973 17.3413 35.2237 17.2625 35.0393 17.25V17.25Z" fill="#407AEA"/>
<path d="M154.324 29.662C153.076 29.662 152.008 29.398 151.12 28.87C150.232 28.342 149.548 27.592 149.068 26.62C148.6 25.648 148.366 24.49 148.366 23.146C148.366 21.814 148.6 20.662 149.068 19.69C149.548 18.718 150.232 17.968 151.12 17.44C152.008 16.912 153.076 16.648 154.324 16.648C155.2 16.648 156.004 16.786 156.736 17.062C157.48 17.338 158.11 17.74 158.626 18.268L158.05 19.474C157.498 18.958 156.922 18.586 156.322 18.358C155.734 18.118 155.08 17.998 154.36 17.998C152.932 17.998 151.84 18.448 151.084 19.348C150.328 20.248 149.95 21.514 149.95 23.146C149.95 24.79 150.328 26.062 151.084 26.962C151.84 27.862 152.932 28.312 154.36 28.312C155.08 28.312 155.734 28.198 156.322 27.97C156.922 27.73 157.498 27.352 158.05 26.836L158.626 28.042C158.11 28.558 157.48 28.96 156.736 29.248C156.004 29.524 155.2 29.662 154.324 29.662ZM163.75 29.662C162.898 29.662 162.16 29.476 161.536 29.104C160.912 28.732 160.426 28.21 160.078 27.538C159.742 26.854 159.574 26.05 159.574 25.126C159.574 24.202 159.742 23.404 160.078 22.732C160.426 22.048 160.912 21.52 161.536 21.148C162.16 20.776 162.898 20.59 163.75 20.59C164.59 20.59 165.322 20.776 165.946 21.148C166.582 21.52 167.068 22.048 167.404 22.732C167.752 23.404 167.926 24.202 167.926 25.126C167.926 26.05 167.752 26.854 167.404 27.538C167.068 28.21 166.582 28.732 165.946 29.104C165.322 29.476 164.59 29.662 163.75 29.662ZM163.75 28.492C164.566 28.492 165.22 28.204 165.712 27.628C166.204 27.04 166.45 26.206 166.45 25.126C166.45 24.034 166.204 23.2 165.712 22.624C165.22 22.048 164.566 21.76 163.75 21.76C162.922 21.76 162.262 22.048 161.77 22.624C161.29 23.2 161.05 24.034 161.05 25.126C161.05 26.206 161.29 27.04 161.77 27.628C162.262 28.204 162.922 28.492 163.75 28.492ZM170.116 29.5V20.752H171.538V22.246C171.826 21.694 172.234 21.28 172.762 21.004C173.29 20.728 173.884 20.59 174.544 20.59C176.62 20.59 177.658 21.742 177.658 24.046V29.5H176.2V24.136C176.2 23.32 176.038 22.726 175.714 22.354C175.402 21.97 174.898 21.778 174.202 21.778C173.398 21.778 172.756 22.03 172.276 22.534C171.808 23.026 171.574 23.686 171.574 24.514V29.5H170.116ZM183.857 29.662C182.825 29.662 182.051 29.392 181.535 28.852C181.019 28.3 180.761 27.508 180.761 26.476V21.886H179.051V20.752H180.761V18.07H182.219V20.752H184.991V21.886H182.219V26.332C182.219 27.016 182.363 27.538 182.651 27.898C182.939 28.246 183.407 28.42 184.055 28.42C184.247 28.42 184.439 28.396 184.631 28.348C184.823 28.3 184.997 28.252 185.153 28.204L185.405 29.32C185.249 29.404 185.021 29.482 184.721 29.554C184.421 29.626 184.133 29.662 183.857 29.662ZM186.459 18.574V16.936H188.259V18.574H186.459ZM186.639 29.5V20.752H188.097V29.5H186.639ZM190.823 29.5V20.752H192.245V22.246C192.533 21.694 192.941 21.28 193.469 21.004C193.997 20.728 194.591 20.59 195.251 20.59C197.327 20.59 198.365 21.742 198.365 24.046V29.5H196.907V24.136C196.907 23.32 196.745 22.726 196.421 22.354C196.109 21.97 195.605 21.778 194.909 21.778C194.105 21.778 193.463 22.03 192.983 22.534C192.515 23.026 192.281 23.686 192.281 24.514V29.5H190.823ZM204.15 29.662C202.05 29.662 201 28.504 201 26.188V20.752H202.458V26.17C202.458 26.95 202.614 27.526 202.926 27.898C203.25 28.27 203.754 28.456 204.438 28.456C205.182 28.456 205.788 28.21 206.256 27.718C206.724 27.214 206.958 26.548 206.958 25.72V20.752H208.416V29.5H206.994V28.024C206.718 28.552 206.328 28.96 205.824 29.248C205.332 29.524 204.774 29.662 204.15 29.662ZM215.085 29.662C213.705 29.662 212.613 29.26 211.809 28.456C211.005 27.64 210.603 26.536 210.603 25.144C210.603 24.244 210.783 23.452 211.143 22.768C211.503 22.072 211.995 21.538 212.619 21.166C213.255 20.782 213.987 20.59 214.815 20.59C216.003 20.59 216.933 20.974 217.605 21.742C218.277 22.498 218.613 23.542 218.613 24.874V25.432H212.025C212.073 26.428 212.361 27.19 212.889 27.718C213.417 28.234 214.149 28.492 215.085 28.492C215.613 28.492 216.117 28.414 216.597 28.258C217.077 28.09 217.533 27.82 217.965 27.448L218.469 28.474C218.073 28.846 217.569 29.14 216.957 29.356C216.345 29.56 215.721 29.662 215.085 29.662ZM214.851 21.67C214.023 21.67 213.369 21.928 212.889 22.444C212.409 22.96 212.127 23.638 212.043 24.478H217.353C217.317 23.59 217.083 22.9 216.651 22.408C216.231 21.916 215.631 21.67 214.851 21.67ZM227.669 29.5L224.411 20.752H225.941L228.407 27.79L230.963 20.752H232.205L234.725 27.808L237.227 20.752H238.685L235.409 29.5H234.023L231.557 22.714L229.073 29.5H227.669ZM240.301 18.574V16.936H242.101V18.574H240.301ZM240.481 29.5V20.752H241.939V29.5H240.481ZM248.175 29.662C247.143 29.662 246.369 29.392 245.853 28.852C245.337 28.3 245.079 27.508 245.079 26.476V21.886H243.369V20.752H245.079V18.07H246.537V20.752H249.309V21.886H246.537V26.332C246.537 27.016 246.681 27.538 246.969 27.898C247.257 28.246 247.725 28.42 248.373 28.42C248.565 28.42 248.757 28.396 248.949 28.348C249.141 28.3 249.315 28.252 249.471 28.204L249.723 29.32C249.567 29.404 249.339 29.482 249.039 29.554C248.739 29.626 248.451 29.662 248.175 29.662ZM250.958 29.5V16.81H252.416V22.192C252.704 21.664 253.106 21.268 253.622 21.004C254.15 20.728 254.738 20.59 255.386 20.59C257.462 20.59 258.5 21.742 258.5 24.046V29.5H257.042V24.136C257.042 23.32 256.88 22.726 256.556 22.354C256.244 21.97 255.74 21.778 255.044 21.778C254.24 21.778 253.598 22.03 253.118 22.534C252.65 23.026 252.416 23.686 252.416 24.514V29.5H250.958ZM266.009 29.5V16.81H273.857V18.052H267.485V22.48H273.497V23.722H267.485V29.5H266.009ZM278.075 29.662C277.475 29.662 276.935 29.548 276.455 29.32C275.987 29.08 275.615 28.756 275.339 28.348C275.063 27.94 274.925 27.484 274.925 26.98C274.925 26.344 275.087 25.84 275.411 25.468C275.747 25.096 276.293 24.832 277.049 24.676C277.817 24.508 278.861 24.424 280.181 24.424H280.757V23.866C280.757 23.122 280.601 22.588 280.289 22.264C279.989 21.928 279.503 21.76 278.831 21.76C278.303 21.76 277.793 21.838 277.301 21.994C276.809 22.138 276.305 22.378 275.789 22.714L275.285 21.652C275.741 21.328 276.293 21.07 276.941 20.878C277.601 20.686 278.231 20.59 278.831 20.59C279.959 20.59 280.793 20.866 281.333 21.418C281.885 21.97 282.161 22.828 282.161 23.992V29.5H280.793V27.988C280.565 28.504 280.211 28.912 279.731 29.212C279.263 29.512 278.711 29.662 278.075 29.662ZM278.309 28.564C279.029 28.564 279.617 28.318 280.073 27.826C280.529 27.322 280.757 26.686 280.757 25.918V25.378H280.199C279.227 25.378 278.459 25.426 277.895 25.522C277.343 25.606 276.953 25.762 276.725 25.99C276.509 26.206 276.401 26.506 276.401 26.89C276.401 27.382 276.569 27.784 276.905 28.096C277.253 28.408 277.721 28.564 278.309 28.564ZM288.574 29.662C287.698 29.662 286.942 29.476 286.306 29.104C285.67 28.72 285.178 28.186 284.83 27.502C284.494 26.806 284.326 25.996 284.326 25.072C284.326 23.68 284.704 22.588 285.46 21.796C286.216 20.992 287.254 20.59 288.574 20.59C289.114 20.59 289.648 20.686 290.176 20.878C290.704 21.07 291.142 21.34 291.49 21.688L290.986 22.75C290.638 22.414 290.254 22.168 289.834 22.012C289.426 21.856 289.036 21.778 288.664 21.778C287.752 21.778 287.05 22.066 286.558 22.642C286.066 23.206 285.82 24.022 285.82 25.09C285.82 26.134 286.066 26.962 286.558 27.574C287.05 28.174 287.752 28.474 288.664 28.474C289.036 28.474 289.426 28.396 289.834 28.24C290.254 28.084 290.638 27.832 290.986 27.484L291.49 28.546C291.142 28.894 290.698 29.17 290.158 29.374C289.63 29.566 289.102 29.662 288.574 29.662ZM296.964 29.662C295.584 29.662 294.492 29.26 293.688 28.456C292.884 27.64 292.482 26.536 292.482 25.144C292.482 24.244 292.662 23.452 293.022 22.768C293.382 22.072 293.874 21.538 294.498 21.166C295.134 20.782 295.866 20.59 296.694 20.59C297.882 20.59 298.812 20.974 299.484 21.742C300.156 22.498 300.492 23.542 300.492 24.874V25.432H293.904C293.952 26.428 294.24 27.19 294.768 27.718C295.296 28.234 296.028 28.492 296.964 28.492C297.492 28.492 297.996 28.414 298.476 28.258C298.956 28.09 299.412 27.82 299.844 27.448L300.348 28.474C299.952 28.846 299.448 29.14 298.836 29.356C298.224 29.56 297.6 29.662 296.964 29.662ZM296.73 21.67C295.902 21.67 295.248 21.928 294.768 22.444C294.288 22.96 294.006 23.638 293.922 24.478H299.232C299.196 23.59 298.962 22.9 298.53 22.408C298.11 21.916 297.51 21.67 296.73 21.67ZM307.03 29.662C306.334 29.662 305.722 29.506 305.194 29.194C304.678 28.882 304.288 28.456 304.024 27.916V29.5H302.602V16.81H304.06V22.264C304.312 21.748 304.702 21.34 305.23 21.04C305.758 20.74 306.358 20.59 307.03 20.59C307.81 20.59 308.488 20.776 309.064 21.148C309.652 21.508 310.102 22.03 310.414 22.714C310.738 23.386 310.9 24.19 310.9 25.126C310.9 26.05 310.738 26.854 310.414 27.538C310.102 28.21 309.652 28.732 309.064 29.104C308.488 29.476 307.81 29.662 307.03 29.662ZM306.724 28.492C307.54 28.492 308.194 28.204 308.686 27.628C309.178 27.04 309.424 26.206 309.424 25.126C309.424 24.034 309.178 23.2 308.686 22.624C308.194 22.048 307.54 21.76 306.724 21.76C305.908 21.76 305.254 22.048 304.762 22.624C304.27 23.2 304.024 24.034 304.024 25.126C304.024 26.206 304.27 27.04 304.762 27.628C305.254 28.204 305.908 28.492 306.724 28.492ZM316.733 29.662C315.881 29.662 315.143 29.476 314.519 29.104C313.895 28.732 313.409 28.21 313.061 27.538C312.725 26.854 312.557 26.05 312.557 25.126C312.557 24.202 312.725 23.404 313.061 22.732C313.409 22.048 313.895 21.52 314.519 21.148C315.143 20.776 315.881 20.59 316.733 20.59C317.573 20.59 318.305 20.776 318.929 21.148C319.565 21.52 320.051 22.048 320.387 22.732C320.735 23.404 320.909 24.202 320.909 25.126C320.909 26.05 320.735 26.854 320.387 27.538C320.051 28.21 319.565 28.732 318.929 29.104C318.305 29.476 317.573 29.662 316.733 29.662ZM316.733 28.492C317.549 28.492 318.203 28.204 318.695 27.628C319.187 27.04 319.433 26.206 319.433 25.126C319.433 24.034 319.187 23.2 318.695 22.624C318.203 22.048 317.549 21.76 316.733 21.76C315.905 21.76 315.245 22.048 314.753 22.624C314.273 23.2 314.033 24.034 314.033 25.126C314.033 26.206 314.273 27.04 314.753 27.628C315.245 28.204 315.905 28.492 316.733 28.492ZM326.734 29.662C325.882 29.662 325.144 29.476 324.52 29.104C323.896 28.732 323.41 28.21 323.062 27.538C322.726 26.854 322.558 26.05 322.558 25.126C322.558 24.202 322.726 23.404 323.062 22.732C323.41 22.048 323.896 21.52 324.52 21.148C325.144 20.776 325.882 20.59 326.734 20.59C327.574 20.59 328.306 20.776 328.93 21.148C329.566 21.52 330.052 22.048 330.388 22.732C330.736 23.404 330.91 24.202 330.91 25.126C330.91 26.05 330.736 26.854 330.388 27.538C330.052 28.21 329.566 28.732 328.93 29.104C328.306 29.476 327.574 29.662 326.734 29.662ZM326.734 28.492C327.55 28.492 328.204 28.204 328.696 27.628C329.188 27.04 329.434 26.206 329.434 25.126C329.434 24.034 329.188 23.2 328.696 22.624C328.204 22.048 327.55 21.76 326.734 21.76C325.906 21.76 325.246 22.048 324.754 22.624C324.274 23.2 324.034 24.034 324.034 25.126C324.034 26.206 324.274 27.04 324.754 27.628C325.246 28.204 325.906 28.492 326.734 28.492ZM333.1 29.5V16.81H334.558V24.64H334.594L338.644 20.752H340.498L336.106 24.964L340.876 29.5H339.022L334.594 25.396H334.558V29.5H333.1Z" fill="#605DEC"/>
<rect x="0.5" y="0.5" width="487" height="47" rx="3.5" stroke="#605DEC"/>
</svg>
