<svg width="488" height="48" viewBox="0 0 488 48" fill="none" xmlns="http://www.w3.org/2000/svg">
<g clip-path="url(#clip0_1868_15190)">
<path d="M36.1176 24.1364C36.1176 23.539 36.0692 23.103 35.9642 22.6509H29.1421V25.3474H33.1465C33.0658 26.0175 32.6299 27.0267 31.661 27.7049L31.6474 27.7952L33.8045 29.4662L33.9539 29.4811C35.3264 28.2135 36.1176 26.3485 36.1176 24.1364Z" fill="#4285F4"/>
<path d="M29.142 31.2411C31.1039 31.2411 32.7509 30.5952 33.9539 29.4811L31.661 27.7048C31.0474 28.1327 30.2239 28.4315 29.142 28.4315C27.2205 28.4315 25.5897 27.1639 25.0083 25.412L24.9231 25.4192L22.6802 27.155L22.6509 27.2366C23.8458 29.6102 26.3001 31.2411 29.142 31.2411Z" fill="#34A853"/>
<path d="M25.0085 25.412C24.8551 24.9599 24.7663 24.4755 24.7663 23.9749C24.7663 23.4744 24.8551 22.99 25.0004 22.5378L24.9963 22.4416L22.7253 20.6779L22.651 20.7132C22.1586 21.6982 21.876 22.8043 21.876 23.9749C21.876 25.1456 22.1586 26.2516 22.651 27.2366L25.0085 25.412Z" fill="#FBBC05"/>
<path d="M29.142 19.5183C30.5064 19.5183 31.4268 20.1077 31.9516 20.6002L34.0023 18.598C32.7428 17.4273 31.1039 16.7087 29.142 16.7087C26.3001 16.7087 23.8458 18.3396 22.6509 20.7132L25.0003 22.5378C25.5897 20.7859 27.2205 19.5183 29.142 19.5183Z" fill="#EB4335"/>
</g>
<path d="M163.253 29.662C162.005 29.662 160.937 29.398 160.049 28.87C159.161 28.342 158.477 27.592 157.997 26.62C157.529 25.648 157.295 24.49 157.295 23.146C157.295 21.814 157.529 20.662 157.997 19.69C158.477 18.718 159.161 17.968 160.049 17.44C160.937 16.912 162.005 16.648 163.253 16.648C164.129 16.648 164.933 16.786 165.665 17.062C166.409 17.338 167.039 17.74 167.555 18.268L166.979 19.474C166.427 18.958 165.851 18.586 165.251 18.358C164.663 18.118 164.009 17.998 163.289 17.998C161.861 17.998 160.769 18.448 160.013 19.348C159.257 20.248 158.879 21.514 158.879 23.146C158.879 24.79 159.257 26.062 160.013 26.962C160.769 27.862 161.861 28.312 163.289 28.312C164.009 28.312 164.663 28.198 165.251 27.97C165.851 27.73 166.427 27.352 166.979 26.836L167.555 28.042C167.039 28.558 166.409 28.96 165.665 29.248C164.933 29.524 164.129 29.662 163.253 29.662ZM172.68 29.662C171.828 29.662 171.09 29.476 170.466 29.104C169.842 28.732 169.356 28.21 169.008 27.538C168.672 26.854 168.504 26.05 168.504 25.126C168.504 24.202 168.672 23.404 169.008 22.732C169.356 22.048 169.842 21.52 170.466 21.148C171.09 20.776 171.828 20.59 172.68 20.59C173.52 20.59 174.252 20.776 174.876 21.148C175.512 21.52 175.998 22.048 176.334 22.732C176.682 23.404 176.856 24.202 176.856 25.126C176.856 26.05 176.682 26.854 176.334 27.538C175.998 28.21 175.512 28.732 174.876 29.104C174.252 29.476 173.52 29.662 172.68 29.662ZM172.68 28.492C173.496 28.492 174.15 28.204 174.642 27.628C175.134 27.04 175.38 26.206 175.38 25.126C175.38 24.034 175.134 23.2 174.642 22.624C174.15 22.048 173.496 21.76 172.68 21.76C171.852 21.76 171.192 22.048 170.7 22.624C170.22 23.2 169.98 24.034 169.98 25.126C169.98 26.206 170.22 27.04 170.7 27.628C171.192 28.204 171.852 28.492 172.68 28.492ZM179.046 29.5V20.752H180.468V22.246C180.756 21.694 181.164 21.28 181.692 21.004C182.22 20.728 182.814 20.59 183.474 20.59C185.55 20.59 186.588 21.742 186.588 24.046V29.5H185.13V24.136C185.13 23.32 184.968 22.726 184.644 22.354C184.332 21.97 183.828 21.778 183.132 21.778C182.328 21.778 181.686 22.03 181.206 22.534C180.738 23.026 180.504 23.686 180.504 24.514V29.5H179.046ZM192.786 29.662C191.754 29.662 190.98 29.392 190.464 28.852C189.948 28.3 189.69 27.508 189.69 26.476V21.886H187.98V20.752H189.69V18.07H191.148V20.752H193.92V21.886H191.148V26.332C191.148 27.016 191.292 27.538 191.58 27.898C191.868 28.246 192.336 28.42 192.984 28.42C193.176 28.42 193.368 28.396 193.56 28.348C193.752 28.3 193.926 28.252 194.082 28.204L194.334 29.32C194.178 29.404 193.95 29.482 193.65 29.554C193.35 29.626 193.062 29.662 192.786 29.662ZM195.389 18.574V16.936H197.189V18.574H195.389ZM195.569 29.5V20.752H197.027V29.5H195.569ZM199.753 29.5V20.752H201.175V22.246C201.463 21.694 201.871 21.28 202.399 21.004C202.927 20.728 203.521 20.59 204.181 20.59C206.257 20.59 207.295 21.742 207.295 24.046V29.5H205.837V24.136C205.837 23.32 205.675 22.726 205.351 22.354C205.039 21.97 204.535 21.778 203.839 21.778C203.035 21.778 202.393 22.03 201.913 22.534C201.445 23.026 201.211 23.686 201.211 24.514V29.5H199.753ZM213.079 29.662C210.979 29.662 209.929 28.504 209.929 26.188V20.752H211.387V26.17C211.387 26.95 211.543 27.526 211.855 27.898C212.179 28.27 212.683 28.456 213.367 28.456C214.111 28.456 214.717 28.21 215.185 27.718C215.653 27.214 215.887 26.548 215.887 25.72V20.752H217.345V29.5H215.923V28.024C215.647 28.552 215.257 28.96 214.753 29.248C214.261 29.524 213.703 29.662 213.079 29.662ZM224.015 29.662C222.635 29.662 221.543 29.26 220.739 28.456C219.935 27.64 219.533 26.536 219.533 25.144C219.533 24.244 219.713 23.452 220.073 22.768C220.433 22.072 220.925 21.538 221.549 21.166C222.185 20.782 222.917 20.59 223.745 20.59C224.933 20.59 225.863 20.974 226.535 21.742C227.207 22.498 227.543 23.542 227.543 24.874V25.432H220.955C221.003 26.428 221.291 27.19 221.819 27.718C222.347 28.234 223.079 28.492 224.015 28.492C224.543 28.492 225.047 28.414 225.527 28.258C226.007 28.09 226.463 27.82 226.895 27.448L227.399 28.474C227.003 28.846 226.499 29.14 225.887 29.356C225.275 29.56 224.651 29.662 224.015 29.662ZM223.781 21.67C222.953 21.67 222.299 21.928 221.819 22.444C221.339 22.96 221.057 23.638 220.973 24.478H226.283C226.247 23.59 226.013 22.9 225.581 22.408C225.161 21.916 224.561 21.67 223.781 21.67ZM236.598 29.5L233.34 20.752H234.87L237.336 27.79L239.892 20.752H241.134L243.654 27.808L246.156 20.752H247.614L244.338 29.5H242.952L240.486 22.714L238.002 29.5H236.598ZM249.231 18.574V16.936H251.031V18.574H249.231ZM249.411 29.5V20.752H250.869V29.5H249.411ZM257.105 29.662C256.073 29.662 255.299 29.392 254.783 28.852C254.267 28.3 254.009 27.508 254.009 26.476V21.886H252.299V20.752H254.009V18.07H255.467V20.752H258.239V21.886H255.467V26.332C255.467 27.016 255.611 27.538 255.899 27.898C256.187 28.246 256.655 28.42 257.303 28.42C257.495 28.42 257.687 28.396 257.879 28.348C258.071 28.3 258.245 28.252 258.401 28.204L258.653 29.32C258.497 29.404 258.269 29.482 257.969 29.554C257.669 29.626 257.381 29.662 257.105 29.662ZM259.888 29.5V16.81H261.346V22.192C261.634 21.664 262.036 21.268 262.552 21.004C263.08 20.728 263.668 20.59 264.316 20.59C266.392 20.59 267.43 21.742 267.43 24.046V29.5H265.972V24.136C265.972 23.32 265.81 22.726 265.486 22.354C265.174 21.97 264.67 21.778 263.974 21.778C263.17 21.778 262.528 22.03 262.048 22.534C261.58 23.026 261.346 23.686 261.346 24.514V29.5H259.888ZM280.735 29.662C278.695 29.662 277.141 29.086 276.073 27.934C275.005 26.782 274.471 25.192 274.471 23.164C274.471 21.82 274.711 20.662 275.191 19.69C275.671 18.718 276.361 17.968 277.261 17.44C278.161 16.912 279.247 16.648 280.519 16.648C281.419 16.648 282.247 16.786 283.003 17.062C283.759 17.326 284.401 17.716 284.929 18.232L284.353 19.42C283.777 18.916 283.183 18.55 282.571 18.322C281.959 18.094 281.269 17.98 280.501 17.98C279.061 17.98 277.957 18.436 277.189 19.348C276.421 20.248 276.037 21.52 276.037 23.164C276.037 24.844 276.433 26.128 277.225 27.016C278.017 27.904 279.199 28.348 280.771 28.348C281.791 28.348 282.769 28.174 283.705 27.826V24.064H280.483V22.894H284.983V28.762C284.647 28.942 284.239 29.098 283.759 29.23C283.291 29.362 282.793 29.464 282.265 29.536C281.737 29.62 281.227 29.662 280.735 29.662ZM291.438 29.662C290.586 29.662 289.848 29.476 289.224 29.104C288.6 28.732 288.114 28.21 287.766 27.538C287.43 26.854 287.262 26.05 287.262 25.126C287.262 24.202 287.43 23.404 287.766 22.732C288.114 22.048 288.6 21.52 289.224 21.148C289.848 20.776 290.586 20.59 291.438 20.59C292.278 20.59 293.01 20.776 293.634 21.148C294.27 21.52 294.756 22.048 295.092 22.732C295.44 23.404 295.614 24.202 295.614 25.126C295.614 26.05 295.44 26.854 295.092 27.538C294.756 28.21 294.27 28.732 293.634 29.104C293.01 29.476 292.278 29.662 291.438 29.662ZM291.438 28.492C292.254 28.492 292.908 28.204 293.4 27.628C293.892 27.04 294.138 26.206 294.138 25.126C294.138 24.034 293.892 23.2 293.4 22.624C292.908 22.048 292.254 21.76 291.438 21.76C290.61 21.76 289.95 22.048 289.458 22.624C288.978 23.2 288.738 24.034 288.738 25.126C288.738 26.206 288.978 27.04 289.458 27.628C289.95 28.204 290.61 28.492 291.438 28.492ZM301.44 29.662C300.588 29.662 299.85 29.476 299.226 29.104C298.602 28.732 298.116 28.21 297.768 27.538C297.432 26.854 297.264 26.05 297.264 25.126C297.264 24.202 297.432 23.404 297.768 22.732C298.116 22.048 298.602 21.52 299.226 21.148C299.85 20.776 300.588 20.59 301.44 20.59C302.28 20.59 303.012 20.776 303.636 21.148C304.272 21.52 304.758 22.048 305.094 22.732C305.442 23.404 305.616 24.202 305.616 25.126C305.616 26.05 305.442 26.854 305.094 27.538C304.758 28.21 304.272 28.732 303.636 29.104C303.012 29.476 302.28 29.662 301.44 29.662ZM301.44 28.492C302.256 28.492 302.91 28.204 303.402 27.628C303.894 27.04 304.14 26.206 304.14 25.126C304.14 24.034 303.894 23.2 303.402 22.624C302.91 22.048 302.256 21.76 301.44 21.76C300.612 21.76 299.952 22.048 299.46 22.624C298.98 23.2 298.74 24.034 298.74 25.126C298.74 26.206 298.98 27.04 299.46 27.628C299.952 28.204 300.612 28.492 301.44 28.492ZM311.676 32.902C310.92 32.902 310.206 32.8 309.534 32.596C308.874 32.404 308.286 32.11 307.77 31.714L308.256 30.652C308.796 31.036 309.33 31.312 309.858 31.48C310.398 31.648 310.98 31.732 311.604 31.732C313.332 31.732 314.196 30.844 314.196 29.068V27.52C313.944 28.072 313.548 28.51 313.008 28.834C312.48 29.146 311.874 29.302 311.189 29.302C310.386 29.302 309.69 29.116 309.102 28.744C308.514 28.372 308.058 27.862 307.734 27.214C307.422 26.554 307.266 25.792 307.266 24.928C307.266 24.064 307.422 23.308 307.734 22.66C308.058 22 308.514 21.49 309.102 21.13C309.69 20.77 310.386 20.59 311.189 20.59C311.874 20.59 312.48 20.746 313.008 21.058C313.548 21.37 313.944 21.796 314.196 22.336V20.752H315.618V28.87C315.618 30.214 315.282 31.222 314.61 31.894C313.95 32.566 312.972 32.902 311.676 32.902ZM311.46 28.114C312.3 28.114 312.966 27.826 313.458 27.25C313.95 26.674 314.196 25.9 314.196 24.928C314.196 23.956 313.95 23.188 313.458 22.624C312.966 22.048 312.3 21.76 311.46 21.76C310.632 21.76 309.972 22.048 309.48 22.624C308.988 23.188 308.742 23.956 308.742 24.928C308.742 25.9 308.988 26.674 309.48 27.25C309.972 27.826 310.632 28.114 311.46 28.114ZM321.034 29.662C320.146 29.662 319.474 29.404 319.018 28.888C318.574 28.36 318.352 27.598 318.352 26.602V16.81H319.81V26.494C319.81 27.778 320.32 28.42 321.34 28.42C321.64 28.42 321.91 28.384 322.15 28.312L322.114 29.536C321.742 29.62 321.382 29.662 321.034 29.662ZM327.533 29.662C326.153 29.662 325.061 29.26 324.257 28.456C323.453 27.64 323.051 26.536 323.051 25.144C323.051 24.244 323.231 23.452 323.591 22.768C323.951 22.072 324.443 21.538 325.067 21.166C325.703 20.782 326.435 20.59 327.263 20.59C328.451 20.59 329.381 20.974 330.053 21.742C330.725 22.498 331.061 23.542 331.061 24.874V25.432H324.473C324.521 26.428 324.809 27.19 325.337 27.718C325.865 28.234 326.597 28.492 327.533 28.492C328.061 28.492 328.565 28.414 329.045 28.258C329.525 28.09 329.981 27.82 330.413 27.448L330.917 28.474C330.521 28.846 330.017 29.14 329.405 29.356C328.793 29.56 328.169 29.662 327.533 29.662ZM327.299 21.67C326.471 21.67 325.817 21.928 325.337 22.444C324.857 22.96 324.575 23.638 324.491 24.478H329.801C329.765 23.59 329.531 22.9 329.099 22.408C328.679 21.916 328.079 21.67 327.299 21.67Z" fill="#605DEC"/>
<rect x="0.5" y="0.5" width="487" height="47" rx="3.5" stroke="#605DEC"/>
<defs>
<clipPath id="clip0_1868_15190">
<rect width="14.25" height="14.5825" fill="white" transform="translate(21.875 16.7087)"/>
</clipPath>
</defs>
</svg>
