<svg width="96" height="49" viewBox="0 0 96 49" fill="none" xmlns="http://www.w3.org/2000/svg">
<rect y="0.5" width="96" height="48" rx="4" fill="#605DEC"/>
<path d="M25.67 30.162C24.674 30.162 23.774 30.036 22.97 29.784C22.166 29.52 21.47 29.142 20.882 28.65L21.404 27.462C22.016 27.93 22.658 28.278 23.33 28.506C24.002 28.734 24.782 28.848 25.67 28.848C26.75 28.848 27.548 28.65 28.064 28.254C28.592 27.846 28.856 27.312 28.856 26.652C28.856 26.124 28.664 25.704 28.28 25.392C27.908 25.08 27.278 24.834 26.39 24.654L24.518 24.276C23.39 24.036 22.544 23.646 21.98 23.106C21.428 22.554 21.152 21.822 21.152 20.91C21.152 20.154 21.344 19.494 21.728 18.93C22.124 18.366 22.67 17.928 23.366 17.616C24.062 17.304 24.866 17.148 25.778 17.148C26.63 17.148 27.422 17.286 28.154 17.562C28.886 17.826 29.504 18.21 30.008 18.714L29.486 19.866C28.946 19.374 28.376 19.02 27.776 18.804C27.176 18.576 26.504 18.462 25.76 18.462C24.812 18.462 24.056 18.684 23.492 19.128C22.928 19.56 22.646 20.136 22.646 20.856C22.646 21.432 22.82 21.888 23.168 22.224C23.528 22.56 24.11 22.806 24.914 22.962L26.786 23.358C27.998 23.61 28.892 23.994 29.468 24.51C30.056 25.014 30.35 25.704 30.35 26.58C30.35 27.288 30.158 27.912 29.774 28.452C29.402 28.992 28.862 29.412 28.154 29.712C27.458 30.012 26.63 30.162 25.67 30.162ZM36.3842 30.162C35.0042 30.162 33.9122 29.76 33.1082 28.956C32.3042 28.14 31.9022 27.036 31.9022 25.644C31.9022 24.744 32.0822 23.952 32.4422 23.268C32.8022 22.572 33.2942 22.038 33.9182 21.666C34.5542 21.282 35.2862 21.09 36.1142 21.09C37.3022 21.09 38.2322 21.474 38.9042 22.242C39.5762 22.998 39.9122 24.042 39.9122 25.374V25.932H33.3242C33.3722 26.928 33.6602 27.69 34.1882 28.218C34.7162 28.734 35.4482 28.992 36.3842 28.992C36.9122 28.992 37.4162 28.914 37.8962 28.758C38.3762 28.59 38.8322 28.32 39.2642 27.948L39.7682 28.974C39.3722 29.346 38.8682 29.64 38.2562 29.856C37.6442 30.06 37.0202 30.162 36.3842 30.162ZM36.1502 22.17C35.3222 22.17 34.6682 22.428 34.1882 22.944C33.7082 23.46 33.4262 24.138 33.3422 24.978H38.6522C38.6162 24.09 38.3822 23.4 37.9502 22.908C37.5302 22.416 36.9302 22.17 36.1502 22.17ZM44.7763 30.162C44.1763 30.162 43.6363 30.048 43.1563 29.82C42.6883 29.58 42.3163 29.256 42.0403 28.848C41.7643 28.44 41.6263 27.984 41.6263 27.48C41.6263 26.844 41.7883 26.34 42.1123 25.968C42.4483 25.596 42.9943 25.332 43.7503 25.176C44.5183 25.008 45.5623 24.924 46.8823 24.924H47.4583V24.366C47.4583 23.622 47.3023 23.088 46.9903 22.764C46.6903 22.428 46.2043 22.26 45.5323 22.26C45.0043 22.26 44.4943 22.338 44.0023 22.494C43.5103 22.638 43.0063 22.878 42.4903 23.214L41.9863 22.152C42.4423 21.828 42.9943 21.57 43.6423 21.378C44.3023 21.186 44.9323 21.09 45.5323 21.09C46.6603 21.09 47.4943 21.366 48.0343 21.918C48.5863 22.47 48.8623 23.328 48.8623 24.492V30H47.4943V28.488C47.2663 29.004 46.9123 29.412 46.4323 29.712C45.9643 30.012 45.4123 30.162 44.7763 30.162ZM45.0103 29.064C45.7303 29.064 46.3183 28.818 46.7743 28.326C47.2303 27.822 47.4583 27.186 47.4583 26.418V25.878H46.9003C45.9283 25.878 45.1603 25.926 44.5963 26.022C44.0443 26.106 43.6543 26.262 43.4263 26.49C43.2103 26.706 43.1023 27.006 43.1023 27.39C43.1023 27.882 43.2703 28.284 43.6063 28.596C43.9543 28.908 44.4223 29.064 45.0103 29.064ZM51.5672 30V21.252H52.9892V22.818C53.4572 21.762 54.4172 21.18 55.8692 21.072L56.3912 21.018L56.4992 22.278L55.5812 22.386C54.7532 22.458 54.1232 22.722 53.6912 23.178C53.2592 23.622 53.0432 24.234 53.0432 25.014V30H51.5672ZM61.6209 30.162C60.7449 30.162 59.9889 29.976 59.3529 29.604C58.7169 29.22 58.2249 28.686 57.8769 28.002C57.5409 27.306 57.3729 26.496 57.3729 25.572C57.3729 24.18 57.7509 23.088 58.5069 22.296C59.2629 21.492 60.3009 21.09 61.6209 21.09C62.1609 21.09 62.6949 21.186 63.2229 21.378C63.7509 21.57 64.1889 21.84 64.5369 22.188L64.0329 23.25C63.6849 22.914 63.3009 22.668 62.8809 22.512C62.4729 22.356 62.0829 22.278 61.7109 22.278C60.7989 22.278 60.0969 22.566 59.6049 23.142C59.1129 23.706 58.8669 24.522 58.8669 25.59C58.8669 26.634 59.1129 27.462 59.6049 28.074C60.0969 28.674 60.7989 28.974 61.7109 28.974C62.0829 28.974 62.4729 28.896 62.8809 28.74C63.3009 28.584 63.6849 28.332 64.0329 27.984L64.5369 29.046C64.1889 29.394 63.7449 29.67 63.2049 29.874C62.6769 30.066 62.1489 30.162 61.6209 30.162ZM66.245 30V17.31H67.703V22.692C67.991 22.164 68.393 21.768 68.909 21.504C69.437 21.228 70.025 21.09 70.673 21.09C72.749 21.09 73.787 22.242 73.787 24.546V30H72.329V24.636C72.329 23.82 72.167 23.226 71.843 22.854C71.531 22.47 71.027 22.278 70.331 22.278C69.527 22.278 68.885 22.53 68.405 23.034C67.937 23.526 67.703 24.186 67.703 25.014V30H66.245Z" fill="#FAFAFA"/>
</svg>
