<svg width="488" height="48" viewBox="0 0 488 48" fill="none" xmlns="http://www.w3.org/2000/svg">
<rect width="488" height="48" rx="4" fill="#605DEC"/>
<path d="M221.923 29.662C220.927 29.662 220.027 29.536 219.223 29.284C218.419 29.02 217.723 28.642 217.135 28.15L217.657 26.962C218.269 27.43 218.911 27.778 219.583 28.006C220.255 28.234 221.035 28.348 221.923 28.348C223.003 28.348 223.801 28.15 224.317 27.754C224.845 27.346 225.109 26.812 225.109 26.152C225.109 25.624 224.917 25.204 224.533 24.892C224.161 24.58 223.531 24.334 222.643 24.154L220.771 23.776C219.643 23.536 218.797 23.146 218.233 22.606C217.681 22.054 217.405 21.322 217.405 20.41C217.405 19.654 217.597 18.994 217.981 18.43C218.377 17.866 218.923 17.428 219.619 17.116C220.315 16.804 221.119 16.648 222.031 16.648C222.883 16.648 223.675 16.786 224.407 17.062C225.139 17.326 225.757 17.71 226.261 18.214L225.739 19.366C225.199 18.874 224.629 18.52 224.029 18.304C223.429 18.076 222.757 17.962 222.013 17.962C221.065 17.962 220.309 18.184 219.745 18.628C219.181 19.06 218.899 19.636 218.899 20.356C218.899 20.932 219.073 21.388 219.421 21.724C219.781 22.06 220.363 22.306 221.167 22.462L223.039 22.858C224.251 23.11 225.145 23.494 225.721 24.01C226.309 24.514 226.603 25.204 226.603 26.08C226.603 26.788 226.411 27.412 226.027 27.952C225.655 28.492 225.115 28.912 224.407 29.212C223.711 29.512 222.883 29.662 221.923 29.662ZM228.515 18.574V16.936H230.315V18.574H228.515ZM228.695 29.5V20.752H230.153V29.5H228.695ZM236.749 32.902C235.993 32.902 235.279 32.8 234.607 32.596C233.947 32.404 233.359 32.11 232.843 31.714L233.329 30.652C233.869 31.036 234.403 31.312 234.931 31.48C235.471 31.648 236.053 31.732 236.677 31.732C238.405 31.732 239.269 30.844 239.269 29.068V27.52C239.017 28.072 238.621 28.51 238.081 28.834C237.553 29.146 236.947 29.302 236.263 29.302C235.459 29.302 234.763 29.116 234.175 28.744C233.587 28.372 233.131 27.862 232.807 27.214C232.495 26.554 232.339 25.792 232.339 24.928C232.339 24.064 232.495 23.308 232.807 22.66C233.131 22 233.587 21.49 234.175 21.13C234.763 20.77 235.459 20.59 236.263 20.59C236.947 20.59 237.553 20.746 238.081 21.058C238.621 21.37 239.017 21.796 239.269 22.336V20.752H240.691V28.87C240.691 30.214 240.355 31.222 239.683 31.894C239.023 32.566 238.045 32.902 236.749 32.902ZM236.533 28.114C237.373 28.114 238.039 27.826 238.531 27.25C239.023 26.674 239.269 25.9 239.269 24.928C239.269 23.956 239.023 23.188 238.531 22.624C238.039 22.048 237.373 21.76 236.533 21.76C235.705 21.76 235.045 22.048 234.553 22.624C234.061 23.188 233.815 23.956 233.815 24.928C233.815 25.9 234.061 26.674 234.553 27.25C235.045 27.826 235.705 28.114 236.533 28.114ZM243.426 29.5V20.752H244.848V22.246C245.136 21.694 245.544 21.28 246.072 21.004C246.6 20.728 247.194 20.59 247.854 20.59C249.93 20.59 250.968 21.742 250.968 24.046V29.5H249.51V24.136C249.51 23.32 249.348 22.726 249.024 22.354C248.712 21.97 248.208 21.778 247.512 21.778C246.708 21.778 246.066 22.03 245.586 22.534C245.118 23.026 244.884 23.686 244.884 24.514V29.5H243.426ZM258.477 29.5V16.81H259.953V29.5H258.477ZM262.885 29.5V20.752H264.307V22.246C264.595 21.694 265.003 21.28 265.531 21.004C266.059 20.728 266.653 20.59 267.313 20.59C269.389 20.59 270.427 21.742 270.427 24.046V29.5H268.969V24.136C268.969 23.32 268.807 22.726 268.483 22.354C268.171 21.97 267.667 21.778 266.971 21.778C266.167 21.778 265.525 22.03 265.045 22.534C264.577 23.026 264.343 23.686 264.343 24.514V29.5H262.885Z" fill="#FAFAFA"/>
</svg>
