<svg width="488" height="48" viewBox="0 0 488 48" fill="none" xmlns="http://www.w3.org/2000/svg">
<rect width="488" height="48" rx="4" fill="#605DEC"/>
<path d="M190.825 29.662C189.577 29.662 188.509 29.398 187.621 28.87C186.733 28.342 186.049 27.592 185.569 26.62C185.101 25.648 184.867 24.49 184.867 23.146C184.867 21.814 185.101 20.662 185.569 19.69C186.049 18.718 186.733 17.968 187.621 17.44C188.509 16.912 189.577 16.648 190.825 16.648C191.701 16.648 192.505 16.786 193.237 17.062C193.981 17.338 194.611 17.74 195.127 18.268L194.551 19.474C193.999 18.958 193.423 18.586 192.823 18.358C192.235 18.118 191.581 17.998 190.861 17.998C189.433 17.998 188.341 18.448 187.585 19.348C186.829 20.248 186.451 21.514 186.451 23.146C186.451 24.79 186.829 26.062 187.585 26.962C188.341 27.862 189.433 28.312 190.861 28.312C191.581 28.312 192.235 28.198 192.823 27.97C193.423 27.73 193.999 27.352 194.551 26.836L195.127 28.042C194.611 28.558 193.981 28.96 193.237 29.248C192.505 29.524 191.701 29.662 190.825 29.662ZM197.248 29.5V20.752H198.67V22.318C199.138 21.262 200.098 20.68 201.55 20.572L202.072 20.518L202.18 21.778L201.262 21.886C200.434 21.958 199.804 22.222 199.372 22.678C198.94 23.122 198.724 23.734 198.724 24.514V29.5H197.248ZM207.536 29.662C206.156 29.662 205.064 29.26 204.26 28.456C203.456 27.64 203.054 26.536 203.054 25.144C203.054 24.244 203.234 23.452 203.594 22.768C203.954 22.072 204.446 21.538 205.07 21.166C205.706 20.782 206.438 20.59 207.266 20.59C208.454 20.59 209.384 20.974 210.056 21.742C210.728 22.498 211.064 23.542 211.064 24.874V25.432H204.476C204.524 26.428 204.812 27.19 205.34 27.718C205.868 28.234 206.6 28.492 207.536 28.492C208.064 28.492 208.568 28.414 209.048 28.258C209.528 28.09 209.984 27.82 210.416 27.448L210.92 28.474C210.524 28.846 210.02 29.14 209.408 29.356C208.796 29.56 208.172 29.662 207.536 29.662ZM207.302 21.67C206.474 21.67 205.82 21.928 205.34 22.444C204.86 22.96 204.578 23.638 204.494 24.478H209.804C209.768 23.59 209.534 22.9 209.102 22.408C208.682 21.916 208.082 21.67 207.302 21.67ZM215.928 29.662C215.328 29.662 214.788 29.548 214.308 29.32C213.84 29.08 213.468 28.756 213.192 28.348C212.916 27.94 212.778 27.484 212.778 26.98C212.778 26.344 212.94 25.84 213.264 25.468C213.6 25.096 214.146 24.832 214.902 24.676C215.67 24.508 216.714 24.424 218.034 24.424H218.61V23.866C218.61 23.122 218.454 22.588 218.142 22.264C217.842 21.928 217.356 21.76 216.684 21.76C216.156 21.76 215.646 21.838 215.154 21.994C214.662 22.138 214.158 22.378 213.642 22.714L213.138 21.652C213.594 21.328 214.146 21.07 214.794 20.878C215.454 20.686 216.084 20.59 216.684 20.59C217.812 20.59 218.646 20.866 219.186 21.418C219.738 21.97 220.014 22.828 220.014 23.992V29.5H218.646V27.988C218.418 28.504 218.064 28.912 217.584 29.212C217.116 29.512 216.564 29.662 215.928 29.662ZM216.162 28.564C216.882 28.564 217.47 28.318 217.926 27.826C218.382 27.322 218.61 26.686 218.61 25.918V25.378H218.052C217.08 25.378 216.312 25.426 215.748 25.522C215.196 25.606 214.806 25.762 214.578 25.99C214.362 26.206 214.254 26.506 214.254 26.89C214.254 27.382 214.422 27.784 214.758 28.096C215.106 28.408 215.574 28.564 216.162 28.564ZM226.229 29.662C225.197 29.662 224.423 29.392 223.907 28.852C223.391 28.3 223.133 27.508 223.133 26.476V21.886H221.423V20.752H223.133V18.07H224.591V20.752H227.363V21.886H224.591V26.332C224.591 27.016 224.735 27.538 225.023 27.898C225.311 28.246 225.779 28.42 226.427 28.42C226.619 28.42 226.811 28.396 227.003 28.348C227.195 28.3 227.369 28.252 227.525 28.204L227.777 29.32C227.621 29.404 227.393 29.482 227.093 29.554C226.793 29.626 226.505 29.662 226.229 29.662ZM232.866 29.662C231.486 29.662 230.394 29.26 229.59 28.456C228.786 27.64 228.384 26.536 228.384 25.144C228.384 24.244 228.564 23.452 228.924 22.768C229.284 22.072 229.776 21.538 230.4 21.166C231.036 20.782 231.768 20.59 232.596 20.59C233.784 20.59 234.714 20.974 235.386 21.742C236.058 22.498 236.394 23.542 236.394 24.874V25.432H229.806C229.854 26.428 230.142 27.19 230.67 27.718C231.198 28.234 231.93 28.492 232.866 28.492C233.394 28.492 233.898 28.414 234.378 28.258C234.858 28.09 235.314 27.82 235.746 27.448L236.25 28.474C235.854 28.846 235.35 29.14 234.738 29.356C234.126 29.56 233.502 29.662 232.866 29.662ZM232.632 21.67C231.804 21.67 231.15 21.928 230.67 22.444C230.19 22.96 229.908 23.638 229.824 24.478H235.134C235.098 23.59 234.864 22.9 234.432 22.408C234.012 21.916 233.412 21.67 232.632 21.67ZM245.881 29.662C245.281 29.662 244.741 29.548 244.261 29.32C243.793 29.08 243.421 28.756 243.145 28.348C242.869 27.94 242.731 27.484 242.731 26.98C242.731 26.344 242.893 25.84 243.217 25.468C243.553 25.096 244.099 24.832 244.855 24.676C245.623 24.508 246.667 24.424 247.987 24.424H248.563V23.866C248.563 23.122 248.407 22.588 248.095 22.264C247.795 21.928 247.309 21.76 246.637 21.76C246.109 21.76 245.599 21.838 245.107 21.994C244.615 22.138 244.111 22.378 243.595 22.714L243.091 21.652C243.547 21.328 244.099 21.07 244.747 20.878C245.407 20.686 246.037 20.59 246.637 20.59C247.765 20.59 248.599 20.866 249.139 21.418C249.691 21.97 249.967 22.828 249.967 23.992V29.5H248.599V27.988C248.371 28.504 248.017 28.912 247.537 29.212C247.069 29.512 246.517 29.662 245.881 29.662ZM246.115 28.564C246.835 28.564 247.423 28.318 247.879 27.826C248.335 27.322 248.563 26.686 248.563 25.918V25.378H248.005C247.033 25.378 246.265 25.426 245.701 25.522C245.149 25.606 244.759 25.762 244.531 25.99C244.315 26.206 244.207 26.506 244.207 26.89C244.207 27.382 244.375 27.784 244.711 28.096C245.059 28.408 245.527 28.564 246.115 28.564ZM256.38 29.662C255.504 29.662 254.748 29.476 254.112 29.104C253.476 28.72 252.984 28.186 252.636 27.502C252.3 26.806 252.132 25.996 252.132 25.072C252.132 23.68 252.51 22.588 253.266 21.796C254.022 20.992 255.06 20.59 256.38 20.59C256.92 20.59 257.454 20.686 257.982 20.878C258.51 21.07 258.948 21.34 259.296 21.688L258.792 22.75C258.444 22.414 258.06 22.168 257.64 22.012C257.232 21.856 256.842 21.778 256.47 21.778C255.558 21.778 254.856 22.066 254.364 22.642C253.872 23.206 253.626 24.022 253.626 25.09C253.626 26.134 253.872 26.962 254.364 27.574C254.856 28.174 255.558 28.474 256.47 28.474C256.842 28.474 257.232 28.396 257.64 28.24C258.06 28.084 258.444 27.832 258.792 27.484L259.296 28.546C258.948 28.894 258.504 29.17 257.964 29.374C257.436 29.566 256.908 29.662 256.38 29.662ZM264.536 29.662C263.66 29.662 262.904 29.476 262.268 29.104C261.632 28.72 261.14 28.186 260.792 27.502C260.456 26.806 260.288 25.996 260.288 25.072C260.288 23.68 260.666 22.588 261.422 21.796C262.178 20.992 263.216 20.59 264.536 20.59C265.076 20.59 265.61 20.686 266.138 20.878C266.666 21.07 267.104 21.34 267.452 21.688L266.948 22.75C266.6 22.414 266.216 22.168 265.796 22.012C265.388 21.856 264.998 21.778 264.626 21.778C263.714 21.778 263.012 22.066 262.52 22.642C262.028 23.206 261.782 24.022 261.782 25.09C261.782 26.134 262.028 26.962 262.52 27.574C263.012 28.174 263.714 28.474 264.626 28.474C264.998 28.474 265.388 28.396 265.796 28.24C266.216 28.084 266.6 27.832 266.948 27.484L267.452 28.546C267.104 28.894 266.66 29.17 266.12 29.374C265.592 29.566 265.064 29.662 264.536 29.662ZM272.62 29.662C271.768 29.662 271.03 29.476 270.406 29.104C269.782 28.732 269.296 28.21 268.948 27.538C268.612 26.854 268.444 26.05 268.444 25.126C268.444 24.202 268.612 23.404 268.948 22.732C269.296 22.048 269.782 21.52 270.406 21.148C271.03 20.776 271.768 20.59 272.62 20.59C273.46 20.59 274.192 20.776 274.816 21.148C275.452 21.52 275.938 22.048 276.274 22.732C276.622 23.404 276.796 24.202 276.796 25.126C276.796 26.05 276.622 26.854 276.274 27.538C275.938 28.21 275.452 28.732 274.816 29.104C274.192 29.476 273.46 29.662 272.62 29.662ZM272.62 28.492C273.436 28.492 274.09 28.204 274.582 27.628C275.074 27.04 275.32 26.206 275.32 25.126C275.32 24.034 275.074 23.2 274.582 22.624C274.09 22.048 273.436 21.76 272.62 21.76C271.792 21.76 271.132 22.048 270.64 22.624C270.16 23.2 269.92 24.034 269.92 25.126C269.92 26.206 270.16 27.04 270.64 27.628C271.132 28.204 271.792 28.492 272.62 28.492ZM282.082 29.662C279.982 29.662 278.932 28.504 278.932 26.188V20.752H280.39V26.17C280.39 26.95 280.546 27.526 280.858 27.898C281.182 28.27 281.686 28.456 282.37 28.456C283.114 28.456 283.72 28.21 284.188 27.718C284.656 27.214 284.89 26.548 284.89 25.72V20.752H286.348V29.5H284.926V28.024C284.65 28.552 284.26 28.96 283.756 29.248C283.264 29.524 282.706 29.662 282.082 29.662ZM289.076 29.5V20.752H290.498V22.246C290.786 21.694 291.194 21.28 291.722 21.004C292.25 20.728 292.844 20.59 293.504 20.59C295.58 20.59 296.618 21.742 296.618 24.046V29.5H295.16V24.136C295.16 23.32 294.998 22.726 294.674 22.354C294.362 21.97 293.858 21.778 293.162 21.778C292.358 21.778 291.716 22.03 291.236 22.534C290.768 23.026 290.534 23.686 290.534 24.514V29.5H289.076ZM302.816 29.662C301.784 29.662 301.01 29.392 300.494 28.852C299.978 28.3 299.72 27.508 299.72 26.476V21.886H298.01V20.752H299.72V18.07H301.178V20.752H303.95V21.886H301.178V26.332C301.178 27.016 301.322 27.538 301.61 27.898C301.898 28.246 302.366 28.42 303.014 28.42C303.206 28.42 303.398 28.396 303.59 28.348C303.782 28.3 303.956 28.252 304.112 28.204L304.364 29.32C304.208 29.404 303.98 29.482 303.68 29.554C303.38 29.626 303.092 29.662 302.816 29.662Z" fill="#FAFAFA"/>
</svg>
